<?xml version="1.0" standalone="no"?>
<!DOCTYPE svg PUBLIC "-//W3C//DTD SVG 20010904//EN"
 "http://www.w3.org/TR/2001/REC-SVG-20010904/DTD/svg10.dtd">
<svg version="1.0" xmlns="http://www.w3.org/2000/svg"
 width="1071.000000pt" height="1071.000000pt" viewBox="0 0 1071.000000 1071.000000"
 preserveAspectRatio="xMidYMid meet">
<metadata>
Created by potrace 1.14, written by Peter Selinger 2001-2017
</metadata>
<g transform="translate(0.000000,1071.000000) scale(0.100000,-0.100000)"
fill="#000000" stroke="none">
<path d="M5120 8966 c0 -2 8 -10 18 -17 15 -13 16 -12 3 4 -13 16 -21 21 -21
13z"/>
<path d="M5110 8924 c0 -2 5 -13 12 -24 18 -29 3 -35 -28 -11 -15 12 -30 19
-33 15 -3 -3 2 -11 12 -18 9 -7 17 -20 17 -29 0 -9 5 -19 12 -23 7 -5 8 -3 3
6 -5 9 -4 11 3 6 19 -12 14 -35 -7 -33 -11 0 -17 5 -15 9 3 4 -1 8 -9 8 -10 0
-13 -8 -9 -25 2 -14 8 -25 12 -25 4 0 10 -9 13 -20 7 -27 -5 -25 -32 4 -12 13
-40 32 -61 42 -22 10 -40 23 -40 27 0 5 -5 5 -12 1 -7 -4 -8 -3 -4 5 5 7 -4
16 -22 24 -16 6 -30 17 -31 22 -2 6 -5 12 -8 15 -4 3 -3 0 0 -6 4 -7 0 -14 -8
-18 -8 -3 -14 0 -12 7 1 7 -8 11 -25 9 -17 -2 -28 1 -28 9 0 7 -3 9 -6 6 -4
-4 -1 -13 5 -21 7 -8 10 -20 6 -26 -3 -5 1 -10 9 -10 9 0 16 -7 16 -16 0 -12
-5 -14 -17 -9 -10 5 -26 8 -35 9 -9 0 -14 4 -12 8 3 4 -3 8 -13 8 -10 0 -29 9
-43 20 -14 11 -34 19 -45 19 -17 0 -15 -2 8 -15 15 -8 25 -19 22 -24 -6 -9 8
-14 28 -11 7 1 11 -15 8 -32 -1 -5 3 -6 8 -3 13 8 42 -4 35 -15 -3 -5 3 -9 13
-9 25 -1 113 -67 113 -85 0 -20 -8 -19 -44 8 -57 43 -166 96 -166 81 0 -8 3
-14 8 -14 4 0 23 -10 42 -22 19 -12 39 -22 45 -23 12 0 20 -35 7 -35 -5 0 -12
3 -16 7 -3 4 -12 8 -19 9 -7 1 -35 16 -63 33 -28 17 -59 32 -70 34 -28 6 -131
54 -138 66 -4 5 -19 12 -35 16 -16 3 -35 13 -42 21 -7 8 -22 20 -33 25 -17 8
-16 6 4 -10 l25 -21 -28 10 c-49 18 -53 11 -9 -16 23 -14 42 -31 41 -37 -3
-22 1 -37 9 -35 14 3 42 -14 42 -27 0 -7 14 -15 30 -18 29 -6 43 -27 18 -27
-37 1 -133 31 -151 47 -21 18 -21 18 -7 -1 14 -18 13 -19 -5 -12 -11 4 -47 18
-80 29 -33 12 -66 29 -73 37 -12 13 -13 13 -7 0 4 -8 -3 -4 -14 10 -16 19 -20
20 -14 6 7 -20 -4 -20 -49 -1 -11 4 -18 3 -18 -4 0 -6 4 -11 9 -11 5 0 22 -5
38 -12 15 -6 34 -10 42 -9 7 1 10 -2 6 -8 -3 -6 0 -11 7 -12 7 -1 2 -5 -12 -9
-22 -7 -20 -8 15 -9 22 -1 51 -8 64 -15 14 -8 32 -11 40 -8 10 4 12 1 7 -7 -6
-9 -1 -12 15 -9 16 2 25 -3 27 -14 4 -21 -19 -18 -128 14 -36 11 -73 20 -82
21 -9 1 -14 5 -12 9 6 9 -36 32 -44 23 -4 -3 0 -10 8 -15 30 -19 1 -19 -51 -2
-30 11 -62 18 -71 16 -10 -1 -18 2 -18 7 0 6 -4 7 -10 4 -5 -3 -10 0 -10 7 0
9 -3 9 -8 2 -14 -21 -37 -21 -61 0 -13 11 -20 14 -16 6 5 -8 17 -21 27 -28 32
-23 8 -34 -26 -12 -19 11 -41 20 -50 20 -9 0 -29 8 -44 17 -26 17 -26 17 -13
0 20 -25 0 -21 -39 8 -38 28 -45 31 -34 13 4 -6 -8 0 -27 14 -38 28 -74 48
-46 25 9 -8 17 -17 17 -21 0 -8 -66 1 -82 10 -6 4 -8 -2 -6 -12 2 -11 10 -19
18 -19 14 0 40 -18 40 -28 0 -2 -20 -4 -45 -3 -25 0 -45 3 -45 8 0 4 -7 8 -15
8 -8 0 -15 4 -15 9 0 5 -7 8 -15 7 -19 -3 -32 -16 -15 -16 7 0 10 -3 7 -7 -4
-3 7 -15 24 -25 17 -11 29 -22 25 -25 -8 -9 -86 18 -86 29 0 5 -10 6 -21 3
-12 -4 -19 -3 -16 2 3 5 -7 7 -23 5 -17 -2 -38 -1 -47 4 -10 4 -38 8 -63 10
-25 1 -39 -1 -32 -3 13 -5 17 -33 5 -33 -5 0 -28 7 -52 16 -24 8 -46 13 -48
10 -3 -3 6 -8 20 -11 28 -7 54 -32 44 -41 -3 -3 -12 -2 -19 2 -22 14 -88 14
-88 0 0 -13 -57 -15 -77 -3 -14 9 -23 -2 -16 -19 3 -9 -2 -14 -18 -14 -73 -1
-89 -3 -89 -12 0 -5 -4 -7 -9 -3 -5 3 -12 1 -16 -5 -4 -6 -12 -7 -18 -3 -7 4
-32 8 -57 9 -25 1 -61 5 -80 8 l-35 7 22 -20 c12 -12 27 -21 33 -21 5 0 10 -5
10 -10 0 -11 -51 -10 -60 1 -3 3 -16 2 -30 -2 -21 -6 -22 -7 -5 -9 11 -1 23
-2 28 -1 4 0 7 -4 7 -10 0 -5 4 -8 9 -4 5 3 12 1 16 -5 3 -5 17 -10 31 -10 13
0 24 -4 24 -9 0 -5 -13 -8 -30 -7 -16 1 -30 -1 -30 -5 0 -4 -12 -10 -27 -12
-16 -2 -9 -3 15 -1 45 4 55 -7 21 -22 -14 -7 -53 -6 -110 1 -83 11 -89 10 -89
-7 0 -15 -6 -17 -35 -12 -26 4 -34 2 -30 -8 4 -10 -10 -14 -57 -16 -35 -1 -67
-7 -72 -12 -13 -13 3 -29 35 -35 13 -3 40 -8 59 -12 19 -4 38 -6 42 -5 5 1 8
-5 8 -13 0 -16 0 -16 -109 -21 -40 -1 -78 -7 -84 -13 -7 -7 -3 -9 13 -6 16 3
20 1 13 -6 -6 -6 -36 -11 -67 -11 -57 -1 -92 -18 -39 -18 l28 -1 -33 -14 c-18
-8 -40 -21 -48 -30 -9 -8 -20 -15 -25 -15 -6 0 -36 -13 -67 -28 -48 -24 -170
-55 -222 -57 -9 0 -14 -8 -12 -18 2 -11 -4 -17 -17 -17 -14 0 -19 -5 -14 -16
3 -8 12 -13 19 -10 8 3 14 -1 14 -9 0 -8 6 -12 13 -9 8 3 14 -2 14 -10 0 -9
-21 -18 -61 -26 -82 -17 -92 -29 -15 -18 34 4 64 6 67 4 2 -3 -9 -11 -26 -20
-16 -8 -32 -12 -36 -9 -3 4 -6 1 -6 -5 0 -6 -12 -12 -28 -14 -16 -2 -27 -9
-27 -18 0 -9 -10 -16 -25 -17 -14 0 -38 -2 -55 -3 -17 -1 -24 -4 -15 -7 8 -3
18 -11 23 -17 5 -8 10 -7 16 3 9 14 41 9 41 -6 0 -11 -108 -43 -143 -43 -27 0
-47 -24 -32 -38 4 -4 10 -2 12 4 4 12 53 7 53 -5 0 -15 -57 -38 -100 -40 -16
-1 -55 -61 -40 -61 6 0 10 -4 10 -8 0 -5 -40 -21 -90 -36 -74 -22 -88 -29 -77
-40 6 -8 15 -12 20 -9 4 2 7 2 7 -1 0 -2 -12 -11 -27 -18 -16 -8 -37 -19 -48
-25 -42 -24 -94 -43 -114 -43 -22 0 -73 -20 -82 -32 -3 -5 -25 -14 -50 -22
-27 -9 -36 -14 -22 -15 12 -1 34 4 49 9 22 9 29 8 36 -4 5 -8 15 -13 23 -10 8
4 15 1 15 -5 0 -9 -13 -14 -105 -38 -43 -11 -42 -10 -76 -12 -27 -1 -30 -3
-19 -16 7 -8 19 -15 26 -15 8 0 14 -5 14 -10 0 -6 9 -5 21 2 17 11 23 11 26 0
3 -6 9 -10 14 -6 5 3 9 0 9 -5 0 -6 -8 -11 -18 -11 -10 0 -27 -7 -38 -15 -21
-16 -54 -20 -54 -6 0 5 -9 7 -20 4 -11 -3 -18 -9 -15 -13 3 -4 -6 -11 -20 -14
-14 -4 -25 -11 -25 -16 0 -6 9 -6 26 0 34 13 39 13 24 -5 -15 -18 -9 -19 25
-3 32 14 45 3 19 -18 -10 -8 -13 -12 -5 -8 9 5 12 3 7 -4 -4 -7 -17 -12 -29
-12 -18 0 -19 -2 -7 -10 13 -8 12 -11 -5 -24 -20 -15 -20 -15 3 -9 12 3 22 9
22 13 0 5 9 6 20 3 18 -5 18 -7 -8 -26 -15 -12 -29 -25 -30 -29 -2 -5 -8 -6
-13 -2 -5 3 -9 0 -9 -6 0 -6 -5 -8 -10 -5 -6 3 -10 1 -10 -5 0 -6 -4 -9 -10
-5 -5 3 -25 -1 -45 -9 -36 -16 -38 -16 -55 -16 -5 0 -10 -4 -10 -9 0 -10 51
-8 69 4 27 16 32 -12 7 -36 -14 -13 -26 -29 -26 -36 0 -6 -7 -19 -16 -27 -8
-9 -11 -16 -5 -16 7 0 10 -17 9 -42 l-3 -43 35 3 c33 2 34 2 16 -13 -11 -8
-23 -15 -28 -15 -4 0 -7 -3 -5 -8 2 -8 -13 -28 -47 -62 -15 -15 -16 -20 -5
-24 8 -2 22 -7 31 -10 22 -7 13 -33 -13 -41 -10 -4 -19 -11 -19 -16 0 -6 -8
-9 -18 -6 -9 2 -30 -3 -46 -11 -20 -10 -31 -11 -39 -3 -13 13 -30 15 -22 2 8
-14 -20 -29 -60 -33 -5 -1 -10 -12 -10 -25 0 -21 19 -36 41 -32 17 3 39 -1 54
-11 13 -8 12 -11 -5 -24 -19 -15 -18 -15 13 -10 40 8 43 -10 5 -25 l-28 -11
33 5 c38 5 40 0 9 -26 l-22 -20 32 15 c17 9 34 13 37 8 7 -12 -31 -52 -55 -55
-12 -2 -26 -13 -30 -24 -7 -20 -5 -21 22 -13 41 12 64 3 47 -18 -7 -8 -26 -24
-43 -34 l-30 -19 42 6 c36 5 41 3 39 -12 -2 -10 -8 -19 -14 -19 -7 -1 -17 -2
-23 -3 -5 0 -7 -5 -4 -11 3 -5 0 -7 -8 -4 -8 3 -20 -2 -27 -11 -7 -8 -19 -15
-26 -15 -8 0 -14 -5 -14 -11 0 -9 16 -7 58 8 30 12 8 -25 -28 -47 -43 -26 -85
-56 -61 -44 8 4 27 8 42 10 23 3 29 0 29 -15 0 -14 6 -17 25 -13 39 7 30 -10
-35 -64 -63 -51 -84 -83 -27 -40 19 15 37 26 40 26 14 0 6 -51 -8 -56 -8 -4
-15 -13 -15 -20 0 -8 -7 -17 -15 -20 -8 -4 -13 -10 -10 -14 3 -4 -3 -7 -12 -6
-9 0 -18 -4 -20 -10 -2 -7 6 -10 22 -6 18 3 25 1 23 -9 -2 -9 5 -13 20 -12 12
2 23 -1 23 -5 5 -30 5 -51 0 -49 -4 1 -22 -10 -40 -25 -18 -16 -28 -28 -22
-28 5 0 13 5 16 10 9 14 25 12 22 -2 -1 -7 -9 -19 -17 -26 -13 -12 -13 -13 0
-7 8 4 4 -3 -10 -15 -14 -12 -19 -19 -12 -15 6 3 19 0 27 -9 19 -19 20 -60 1
-53 -7 3 -26 -3 -42 -14 -21 -14 -24 -19 -11 -19 23 0 22 -9 -5 -39 -13 -14
-15 -19 -5 -12 10 8 17 9 17 3 0 -6 10 -7 27 -3 16 5 27 12 26 18 -1 5 7 10
18 10 10 1 19 -2 19 -8 0 -5 -4 -9 -8 -9 -5 0 -9 -7 -9 -15 0 -8 5 -11 11 -7
19 11 56 13 56 2 0 -5 -4 -10 -10 -10 -5 0 -9 -5 -7 -12 2 -12 -3 -14 -40 -17
-14 -1 -15 -3 -5 -10 7 -4 12 -14 10 -22 -3 -12 -17 -19 -98 -50 -23 -8 -22
-9 7 -4 42 6 48 -7 19 -37 -22 -22 -23 -24 -5 -24 10 0 19 4 19 9 0 4 4 6 9 2
5 -3 16 2 25 11 20 20 86 31 86 15 0 -21 -27 -41 -54 -41 -14 0 -28 -6 -32
-12 -4 -7 -4 -10 1 -6 4 4 14 0 23 -8 13 -13 13 -19 1 -41 -8 -14 -22 -28 -32
-31 -22 -6 -16 -28 7 -24 9 2 16 -4 16 -13 0 -13 9 -16 43 -15 23 1 48 1 55 1
15 -1 16 -41 1 -41 -6 0 -22 -13 -36 -30 -13 -16 -30 -30 -36 -30 -7 0 -18 -9
-25 -20 -10 -17 -10 -20 3 -21 8 -1 21 -2 28 -3 13 -2 59 7 95 18 18 6 22 4
22 -13 0 -12 5 -21 10 -21 15 0 12 -26 -5 -40 -23 -19 -18 -49 9 -61 18 -9 26
-22 31 -56 5 -37 8 -42 18 -29 7 9 28 20 47 26 l35 9 -32 -28 c-17 -16 -29
-32 -26 -35 4 -3 -2 -15 -12 -26 -10 -11 -13 -20 -8 -20 6 0 13 6 16 14 3 7
17 16 31 18 23 5 25 2 23 -26 -1 -17 -9 -37 -17 -44 -8 -7 -10 -12 -5 -11 31
4 55 -3 55 -16 0 -17 16 -20 26 -4 3 6 17 8 29 5 13 -3 25 -2 27 3 2 5 11 11
22 13 24 4 31 -29 7 -37 -19 -6 -69 -55 -57 -55 5 0 3 -7 -4 -15 -15 -18 1
-21 31 -4 17 9 20 7 17 -8 -2 -12 2 -17 15 -15 21 4 33 -23 18 -42 -9 -11 -6
-12 15 -8 21 4 25 2 19 -9 -8 -12 -6 -12 8 0 22 17 32 9 19 -16 -5 -10 -8 -23
-5 -29 2 -6 -3 -17 -12 -24 -8 -7 -15 -17 -15 -22 0 -6 12 4 27 21 31 35 54
41 48 11 -4 -23 13 -27 21 -5 8 21 70 20 78 -1 3 -9 11 -12 18 -8 10 6 10 4 2
-7 -11 -15 -11 -99 0 -117 3 -6 17 -9 31 -6 19 3 23 1 19 -11 -4 -10 0 -15 10
-15 9 0 16 -6 16 -14 0 -14 -34 -29 -60 -27 -10 1 -11 -1 -4 -6 24 -18 24 -45
0 -64 -24 -19 -27 -33 -13 -55 6 -10 -6 -46 -34 -96 -11 -22 -5 -23 26 -2 14
9 25 12 25 8 0 -5 5 -2 10 6 10 16 50 23 50 8 0 -5 -7 -11 -15 -14 -8 -4 -12
-10 -9 -15 3 -5 -1 -12 -9 -14 -7 -3 -13 -16 -12 -28 1 -12 -6 -28 -15 -37 -9
-8 -14 -14 -12 -13 3 1 13 -2 23 -7 17 -9 14 -17 -34 -91 -29 -44 -52 -83 -52
-87 0 -4 -3 -11 -6 -17 -20 -32 -48 -198 -50 -295 0 -26 -1 -426 -1 -580 0 -8
-6 -85 -14 -170 -7 -85 -16 -184 -19 -220 -3 -36 -12 -103 -20 -150 -8 -47
-16 -103 -20 -125 -9 -68 -35 -148 -63 -195 -15 -25 -34 -61 -43 -80 -9 -19
-37 -61 -63 -94 -42 -53 -50 -76 -26 -76 5 0 39 23 75 51 l66 50 -5 -33 c-21
-125 -25 -163 -25 -241 0 -143 44 -260 128 -342 46 -44 50 -55 20 -55 -11 0
-18 -4 -14 -10 3 -5 12 -7 20 -3 8 3 15 1 15 -3 0 -5 10 -10 23 -11 12 -1 54
-8 92 -16 39 -8 86 -17 105 -20 19 -3 125 -19 235 -37 262 -41 381 -59 430
-65 22 -3 52 -8 67 -11 31 -6 71 3 63 15 -2 5 4 19 15 31 11 13 21 27 21 32 1
4 2 13 3 19 2 22 43 25 323 25 157 -1 278 3 273 8 -4 4 -140 9 -302 10 -290 1
-293 1 -296 22 -3 18 4 23 40 29 24 5 84 9 133 10 70 2 101 7 140 25 28 13 52
26 55 30 3 5 21 11 41 14 19 3 46 9 58 14 17 6 35 3 62 -11 29 -14 54 -18 106
-15 37 2 75 7 84 11 19 10 112 -51 187 -122 45 -43 52 -47 52 -28 -1 32 -51
146 -93 208 -20 30 -60 79 -89 111 -29 31 -68 75 -86 97 -18 23 -39 41 -46 41
-7 0 -24 9 -37 21 -22 19 -32 20 -104 15 -44 -4 -96 -11 -115 -16 -113 -30
-375 -81 -480 -95 -40 -5 -180 10 -315 34 -72 13 -138 36 -143 49 -2 7 -12 12
-22 12 -34 0 -32 20 6 62 l37 41 -23 19 c-12 10 -28 18 -34 18 -28 0 -37 47
-38 205 -2 308 10 568 36 810 2 11 6 29 9 40 4 11 8 47 11 80 2 33 13 81 25
108 21 49 52 157 45 157 -11 0 60 113 95 151 30 33 43 41 52 32 9 -9 17 -5 35
15 19 19 27 23 36 14 9 -9 7 -16 -5 -30 -21 -23 -22 -39 -2 -22 22 18 30 5 16
-27 -10 -22 -10 -24 1 -16 7 6 28 10 47 9 24 -2 35 2 38 14 2 9 13 22 25 29
16 10 19 10 12 -1 -4 -7 -4 -10 0 -6 4 3 15 21 24 40 12 23 25 34 45 36 23 3
27 0 27 -22 0 -14 5 -28 10 -31 6 -3 10 -21 10 -38 0 -22 3 -28 9 -18 5 7 13
11 19 7 5 -3 15 1 22 9 7 8 15 13 19 11 4 -3 8 5 8 16 3 33 20 43 33 19 8 -16
17 -20 32 -15 17 5 20 3 15 -10 -4 -10 -1 -19 8 -22 8 -4 12 -10 9 -15 -3 -5
2 -6 10 -3 9 3 16 1 16 -5 0 -8 5 -9 19 -2 24 13 32 -4 25 -51 -5 -29 -3 -34
15 -34 12 0 22 4 22 8 1 4 2 13 3 20 2 23 26 20 27 -4 l0 -23 9 22 c5 13 12
23 15 23 4 0 3 -4 0 -10 -3 -5 -4 -10 0 -10 3 0 10 11 15 25 9 24 30 35 30 15
0 -5 7 -10 15 -10 8 0 15 -4 15 -10 0 -5 21 -7 50 -4 47 4 50 3 51 -18 1 -18
3 -16 9 8 4 18 12 38 19 45 6 8 18 23 26 34 14 20 14 20 15 -1 0 -11 -7 -29
-15 -40 -17 -23 -19 -38 -4 -28 8 5 10 -1 5 -19 -11 -44 11 -40 65 13 28 27
53 50 54 50 1 0 1 -18 1 -40 -1 -22 2 -47 6 -57 6 -16 7 -16 7 -1 1 20 40 50
54 41 6 -3 7 -1 3 5 -3 6 3 13 14 17 11 3 20 11 20 16 0 6 5 7 10 4 6 -3 10
-20 10 -36 0 -17 4 -28 10 -24 5 3 7 12 3 20 -3 9 1 15 11 15 16 0 20 -10 17
-40 -1 -11 2 -10 13 4 13 16 16 17 21 4 4 -9 15 -13 28 -11 16 3 23 -1 24 -14
3 -34 64 -181 102 -244 21 -34 60 -89 88 -123 281 -337 384 -468 444 -566 19
-30 55 -84 82 -119 55 -72 212 -309 241 -361 10 -19 34 -65 52 -102 19 -37 45
-77 58 -90 13 -13 27 -36 30 -53 4 -16 10 -46 15 -66 4 -19 20 -53 34 -74 33
-48 33 -55 5 -55 -21 -1 -22 -2 -6 -14 21 -15 125 -34 228 -41 41 -2 84 -6 95
-9 40 -8 141 -19 165 -17 14 1 126 -8 250 -19 289 -27 319 -30 355 -35 27 -4
67 -7 215 -19 45 -4 89 -12 124 -22 10 -4 22 0 27 7 12 19 11 72 0 103 l-10
24 97 3 c53 1 136 2 185 3 51 1 87 5 87 11 0 6 9 16 21 23 15 10 20 21 16 38
-3 18 0 24 13 24 26 0 118 -34 187 -69 34 -17 67 -31 73 -31 20 0 9 28 -29 72
-52 59 -99 90 -215 142 -54 24 -105 51 -114 58 -26 23 -122 58 -172 63 -25 2
-179 7 -342 10 -164 3 -309 10 -324 15 -15 6 -50 10 -78 11 -112 0 -172 8
-276 38 -97 27 -91 22 -120 101 -26 74 -27 75 -63 76 -42 1 -65 17 -83 59 -7
17 -37 57 -68 90 -30 33 -55 64 -56 68 0 5 -16 29 -36 53 -20 24 -33 44 -29
44 3 0 -1 7 -10 16 -27 28 -125 152 -125 160 0 4 -12 23 -27 43 -30 38 -32 43
-82 134 -17 32 -40 70 -51 84 -11 14 -20 34 -20 44 0 10 -5 21 -10 24 -28 18
-68 127 -75 208 -3 26 -11 68 -20 92 -8 25 -14 64 -13 87 1 24 -2 58 -6 75 -7
31 -6 33 18 33 16 0 25 5 23 13 -1 6 4 11 12 9 10 -2 12 4 7 23 -6 25 10 32
25 11 10 -13 47 3 54 24 3 10 13 21 22 24 18 7 46 -12 37 -25 -3 -5 2 -9 11
-9 11 0 15 5 11 15 -5 14 5 20 27 16 5 -1 6 3 2 9 -3 5 2 13 12 17 23 9 37 23
46 46 9 24 23 21 31 -5 5 -18 8 -20 15 -9 5 7 6 21 4 31 -5 19 3 20 45 6 12
-4 20 -11 18 -15 -3 -4 -1 -13 5 -21 6 -10 9 -11 9 -2 0 6 7 12 15 12 8 0 12
-6 9 -14 -3 -8 0 -17 7 -22 7 -4 10 -3 5 4 -3 6 0 14 7 19 20 12 39 52 31 65
-4 6 -3 8 3 5 7 -4 14 8 18 31 4 22 18 48 37 65 l30 28 28 -31 c32 -36 40 -38
33 -7 -3 12 -2 19 2 15 9 -9 37 40 30 52 -7 11 30 19 45 10 7 -4 10 -12 6 -18
-3 -6 0 -12 6 -15 10 -3 10 -9 2 -28 -23 -48 -37 -90 -31 -96 4 -3 12 6 18 21
7 14 18 26 26 26 7 0 13 6 13 14 0 7 7 19 16 27 13 11 14 9 9 -14 -6 -23 -5
-26 11 -20 10 4 15 2 11 -4 -3 -5 3 -17 15 -27 16 -14 22 -15 28 -5 5 7 6 18
3 26 -6 16 9 17 26 1 11 -11 12 -9 7 9 -4 12 -2 24 4 28 17 11 42 -17 37 -41
-2 -13 -1 -22 2 -21 3 1 16 -4 29 -11 23 -13 47 -8 37 9 -4 5 0 12 9 15 8 3
13 13 11 23 -4 21 22 24 30 4 3 -8 1 -22 -4 -32 -8 -14 -6 -17 11 -16 12 1 24
7 26 13 8 25 24 11 20 -18 -4 -29 7 -37 45 -31 4 0 7 -15 7 -34 0 -37 10 -44
30 -20 7 8 16 12 21 9 5 -3 9 6 9 20 0 17 6 26 16 26 8 0 12 -5 8 -11 -4 -7 0
-9 14 -5 25 8 37 -28 15 -49 -17 -17 -10 -19 18 -5 22 12 24 7 8 -22 -8 -15
-8 -19 0 -13 7 4 17 2 24 -4 10 -7 13 -5 14 11 3 28 6 30 36 19 17 -7 28 -7
32 0 14 21 22 -3 19 -56 -1 -32 2 -53 7 -49 5 3 7 10 4 15 -4 5 -1 9 5 9 6 0
8 4 5 10 -3 5 0 22 8 36 l14 27 7 -28 c4 -15 5 -30 2 -32 -9 -9 18 -31 31 -26
7 3 13 -2 13 -11 0 -9 5 -16 11 -16 5 0 7 -4 4 -10 -3 -5 -1 -10 5 -10 6 0 13
7 16 15 12 31 40 15 35 -20 -1 -5 10 3 24 19 14 15 28 27 29 25 2 -2 11 -26
19 -54 14 -46 15 -47 16 -17 1 35 17 42 37 15 13 -17 13 -17 14 0 0 23 21 22
27 -3 3 -11 9 -17 14 -14 5 3 6 10 3 16 -4 6 1 8 12 6 11 -2 17 -7 14 -11 -3
-4 10 -15 28 -24 29 -14 35 -14 43 -2 7 11 9 11 9 -3 0 -9 5 -20 11 -24 8 -4
9 0 4 15 -9 31 2 57 26 58 17 2 20 -3 16 -23 -2 -13 0 -24 4 -24 5 0 9 -8 9
-17 0 -10 9 -36 20 -58 16 -33 19 -36 18 -15 -1 14 0 38 0 54 2 24 4 27 17 16
8 -7 15 -21 15 -31 0 -11 7 -19 15 -19 11 0 14 9 10 35 -2 19 -1 35 3 35 8 0
32 -49 32 -65 0 -6 7 -20 16 -31 8 -10 13 -13 9 -6 -3 6 -2 12 2 12 5 0 15 -6
22 -12 11 -11 13 -9 9 8 -4 15 -1 21 9 20 15 -3 34 -26 28 -36 -2 -3 16 -5 38
-4 29 0 41 5 39 14 -2 8 3 10 13 7 9 -4 15 -1 15 8 0 28 16 15 39 -31 22 -43
24 -45 40 -27 10 10 15 28 13 40 -5 29 18 31 25 3 3 -11 9 -20 13 -20 4 0 10
-10 14 -23 3 -13 12 -24 21 -24 9 0 16 10 16 24 2 35 3 41 12 49 4 4 7 -4 7
-17 0 -13 4 -19 8 -14 11 15 50 18 55 3 2 -7 2 -1 0 14 -6 39 12 42 47 8 36
-35 45 -38 28 -10 -11 17 -10 22 2 30 23 15 27 12 39 -20 5 -16 12 -30 14 -30
2 0 3 21 3 47 -1 55 21 72 30 24 9 -44 23 -48 17 -6 -3 21 0 35 6 35 6 0 11
-7 11 -16 0 -8 5 -12 10 -9 10 6 15 -9 10 -30 -1 -5 2 -7 6 -3 4 4 13 3 21 -3
7 -6 13 -8 14 -3 6 67 10 72 43 50 24 -15 25 -15 19 1 -5 11 -3 14 6 8 13 -7
11 6 -6 53 -3 6 1 12 10 12 8 0 18 -16 24 -42 9 -35 11 -38 12 -15 1 16 7 27
15 27 19 0 39 -27 30 -41 -5 -9 -2 -10 11 -5 11 4 22 1 28 -6 6 -9 7 -6 4 9
-3 14 0 21 7 20 6 -1 12 5 12 13 1 8 2 18 3 22 0 4 14 3 30 -2 23 -6 31 -5 36
8 4 12 8 13 17 4 16 -16 28 -15 28 2 0 8 8 13 18 11 23 -3 42 13 35 31 -9 23
13 16 26 -8 l11 -23 -6 23 c-7 29 25 31 51 2 13 -14 22 -17 35 -10 10 5 19 7
22 5 2 -3 3 9 0 25 -2 18 0 30 7 30 6 0 8 7 5 15 -4 8 -1 15 5 15 6 0 11 -4
11 -10 0 -5 7 -10 15 -10 9 0 20 -11 25 -25 5 -14 12 -25 14 -25 7 0 -5 30
-22 57 -7 12 -12 32 -9 45 l4 23 8 -22 c11 -35 54 -28 68 10 3 9 15 17 26 17
23 0 36 16 22 25 -6 3 -8 12 -4 21 4 11 8 12 20 3 7 -7 12 -18 9 -26 -3 -8 -2
-12 3 -9 4 3 13 -6 20 -20 6 -14 16 -22 22 -19 11 7 6 85 -6 105 -5 8 -1 11
11 8 11 -2 18 -9 17 -15 -1 -6 4 -14 12 -17 9 -3 12 0 8 10 -3 8 1 14 10 14 8
0 17 9 20 20 3 11 13 23 24 27 33 13 41 26 32 52 -12 29 -5 38 16 21 13 -11
15 -10 10 2 -4 9 0 15 10 15 9 0 15 -9 15 -23 0 -13 4 -25 9 -28 5 -3 9 0 8 7
-1 45 4 77 13 72 6 -3 10 4 10 15 0 16 5 20 15 16 12 -4 15 3 15 29 0 18 3 36
8 38 9 6 33 -19 25 -27 -4 -3 1 -6 10 -6 9 0 17 -8 17 -17 0 -13 5 -11 18 10
22 36 36 34 54 -5 8 -18 13 -28 12 -21 -5 21 9 22 26 1 13 -16 19 -18 25 -8 5
9 4 11 -3 6 -7 -4 -12 -3 -12 2 0 23 62 31 86 11 6 -5 13 -7 16 -4 2 3 5 -2 5
-10 0 -9 -36 -41 -79 -72 -43 -31 -78 -58 -78 -60 0 -6 15 4 99 64 49 35 77
50 82 42 4 -8 10 -6 17 6 7 13 15 16 28 10 30 -13 64 -12 64 2 0 7 5 13 11 13
6 0 9 -7 5 -15 -3 -9 1 -15 11 -15 13 0 14 -2 2 -17 -13 -17 -12 -17 11 -2 25
16 25 16 25 -12 1 -15 -2 -26 -5 -24 -3 1 -13 -7 -22 -20 -17 -22 -17 -23 2
-18 11 3 17 9 14 14 -3 5 0 9 5 9 6 0 11 -7 11 -15 0 -8 4 -15 9 -15 5 0 7
-10 4 -22 -5 -21 -3 -20 20 6 l24 30 15 -28 c10 -18 18 -25 22 -17 12 18 28
13 18 -6 -4 -10 -8 -25 -7 -33 1 -8 -2 -22 -6 -31 -11 -23 9 -41 33 -28 15 8
24 4 48 -20 17 -16 30 -35 30 -41 0 -6 5 -8 10 -5 15 9 40 -20 40 -45 0 -16 4
-20 15 -16 9 3 15 1 14 -7 -4 -34 2 -45 21 -40 14 4 20 0 20 -11 0 -9 8 -16
21 -16 11 0 18 -4 15 -9 -4 -5 5 -22 18 -38 31 -37 60 -108 52 -128 -3 -8 0
-14 7 -12 7 1 11 -3 10 -10 -2 -7 13 -47 32 -89 20 -43 40 -108 46 -145 6 -38
26 -112 46 -166 151 -419 276 -854 324 -1123 28 -160 39 -200 59 -213 10 -6
16 -16 13 -23 -8 -21 47 -125 73 -136 27 -12 33 -10 38 18 3 11 9 38 14 61 18
77 10 156 -38 393 -16 80 -32 159 -34 175 -19 104 -37 216 -40 250 -3 22 -14
87 -24 145 -11 58 -23 121 -26 140 -4 19 -15 85 -26 145 -10 61 -33 189 -49
285 -17 96 -40 216 -51 266 -17 81 -22 116 -20 164 1 8 -1 39 -4 68 -6 55 5
67 31 35 13 -16 13 -16 7 7 -7 25 -7 25 15 6 30 -27 26 -15 -9 29 -16 21 -30
41 -30 44 0 4 18 6 39 6 34 0 38 2 30 17 -5 9 -14 20 -19 23 -17 11 -11 25 11
25 11 0 17 -5 14 -10 -4 -6 -3 -9 2 -8 4 1 18 -3 31 -10 31 -18 28 -10 -17 40
-39 43 -47 64 -14 37 14 -12 16 -12 8 0 -6 11 -4 13 11 8 14 -5 12 -2 -6 12
-24 19 -23 40 1 25 12 -7 69 -12 69 -6 0 2 -16 10 -35 18 -19 8 -35 19 -35 24
0 13 4 12 33 -1 18 -8 30 -8 48 1 20 11 21 14 7 24 -22 16 -6 41 21 33 12 -3
19 -2 16 3 -2 4 -28 11 -57 15 -31 5 -45 10 -33 13 11 2 23 9 26 14 6 10 50
12 116 5 30 -3 43 0 47 10 4 8 15 12 30 9 16 -3 23 0 20 7 -3 9 -40 12 -122
12 -65 0 -129 2 -142 6 l-25 6 28 12 c16 6 34 11 40 11 7 0 25 7 41 15 16 9
36 13 43 11 7 -3 23 -2 35 3 16 6 6 8 -35 8 -31 0 -57 -4 -57 -9 0 -4 -13 -8
-30 -8 -16 0 -30 3 -30 8 0 8 43 27 84 37 17 3 35 13 41 22 6 8 27 18 45 23
30 7 31 8 9 9 -15 1 -46 -6 -69 -14 -24 -8 -44 -14 -46 -13 -1 2 4 12 12 22 8
11 14 16 14 12 0 -5 7 -3 15 4 8 7 15 10 15 6 0 -3 18 5 40 19 22 14 59 33 83
43 23 9 43 23 44 29 2 7 -36 -8 -84 -32 -48 -25 -90 -45 -94 -45 -4 0 -5 9 -2
20 3 12 12 19 21 18 9 -2 17 3 17 10 0 8 11 20 25 29 23 13 12 12 -25 -3 -28
-12 -15 20 23 56 21 19 30 29 21 22 -10 -8 -25 -12 -34 -10 -13 2 -10 11 17
48 18 24 27 41 20 36 -17 -10 -15 10 5 42 l17 27 -24 -20 c-20 -17 -22 -17
-17 -3 4 13 2 16 -11 11 -12 -4 -10 2 8 21 14 16 24 37 22 49 -2 16 10 32 42
57 25 19 45 39 46 44 0 8 -11 1 -64 -46 -31 -28 -40 -21 -17 11 12 16 21 33
21 38 0 4 12 26 27 48 15 22 28 51 29 65 0 14 3 32 5 40 3 11 -3 14 -18 12
-26 -4 -23 12 7 58 29 43 32 60 10 60 -10 0 -22 5 -26 12 -5 7 -3 8 7 3 11 -7
12 -6 2 6 -6 8 -10 35 -8 62 2 28 0 47 -7 47 -5 0 -8 7 -5 14 4 10 1 13 -9 9
-19 -7 -18 20 1 58 10 19 14 41 9 63 -3 19 -1 43 5 53 8 15 6 28 -9 56 -12 22
-16 39 -10 42 6 3 10 11 10 16 0 6 -4 7 -10 4 -6 -4 -11 13 -11 42 -2 69 -5
86 -17 110 -6 11 -9 22 -7 25 2 2 -12 2 -32 0 -28 -4 -34 -2 -27 9 12 20 14
39 4 39 -5 0 -12 -4 -15 -10 -3 -5 -11 -10 -16 -10 -6 0 -8 4 -5 9 4 5 -3 7
-14 4 -25 -7 -25 2 0 35 13 16 17 28 10 32 -6 4 -7 15 -4 25 6 14 4 17 -9 12
-22 -8 -44 30 -28 46 18 18 13 24 -29 31 -23 4 -38 11 -35 16 3 6 1 10 -5 10
-6 0 -8 12 -5 30 3 17 2 30 -3 30 -4 0 -8 9 -9 20 -1 13 2 18 10 14 8 -5 7 -2
-1 7 -8 9 -15 10 -20 4 -10 -14 -32 -17 -32 -4 0 5 -10 3 -22 -5 -27 -19 -42
-21 -32 -3 6 8 3 8 -9 -1 -14 -12 -16 -11 -12 6 4 22 24 60 43 80 6 7 12 21
12 30 0 12 -7 9 -25 -13 -13 -16 -24 -33 -25 -37 0 -17 -16 -6 -17 12 -1 11 1
20 5 20 4 0 7 14 8 31 1 21 -2 27 -9 20 -6 -6 -15 -11 -19 -11 -10 0 -7 51 5
70 5 8 -2 3 -16 -12 -14 -16 -28 -28 -31 -28 -9 0 -2 44 8 51 4 4 0 16 -10 27
-19 23 -26 60 -12 68 4 3 8 13 7 22 0 14 -2 14 -6 2 -3 -8 -12 -22 -20 -31 -8
-9 -15 -26 -16 -38 -1 -11 -8 -21 -15 -21 -10 0 -13 8 -10 25 3 13 1 22 -3 19
-11 -6 -12 40 -2 50 4 3 8 12 9 19 1 7 9 33 17 60 8 26 11 47 6 47 -5 0 -11
-11 -15 -25 -3 -14 -10 -23 -14 -20 -4 3 -11 -7 -15 -22 -5 -20 -9 -23 -15
-13 -4 7 -6 19 -3 26 3 8 -2 11 -16 7 -19 -5 -19 -3 -11 28 6 19 10 43 9 54 0
17 -11 -9 -45 -107 -10 -30 -23 -20 -17 13 3 21 1 29 -6 24 -7 -3 -11 2 -11
14 0 13 7 21 16 21 13 0 14 3 5 14 -9 11 -10 20 -1 35 6 12 7 21 3 21 -4 0 -1
5 7 10 10 7 11 10 2 10 -7 0 -15 -7 -18 -15 -4 -8 -11 -12 -16 -9 -6 4 -9 1
-6 -7 6 -17 -15 -39 -37 -39 -10 0 -13 4 -8 13 4 6 8 29 9 49 1 29 -2 35 -11
28 -7 -6 -20 -8 -29 -4 -12 5 -13 10 -6 25 9 15 7 17 -5 13 -13 -5 -15 -1 -10
22 5 24 4 26 -5 11 -12 -19 -35 -13 -24 6 4 7 3 8 -2 4 -5 -5 -9 -12 -9 -16 0
-9 -31 -41 -40 -41 -3 0 -4 4 0 9 3 5 1 12 -4 15 -11 7 -23 -22 -15 -35 3 -5
0 -9 -6 -9 -6 0 -8 -5 -4 -12 4 -7 3 -8 -4 -4 -8 4 -16 -4 -23 -21 -9 -25 -11
-26 -21 -10 -7 13 -6 24 5 40 14 21 13 23 -4 24 -14 1 -21 -7 -26 -28 -7 -35
-20 -46 -36 -30 -9 9 -8 16 1 31 14 24 15 30 3 30 -6 0 -16 -12 -23 -27 -7
-14 -19 -28 -25 -31 -17 -5 -17 50 -1 66 9 9 9 12 0 12 -6 0 -17 -9 -24 -20
-18 -28 -31 -25 -26 5 3 14 1 25 -3 25 -5 0 -9 -12 -9 -27 0 -39 -13 -55 -36
-47 -27 11 -33 24 -23 52 5 13 7 28 3 33 -10 17 -33 9 -37 -13 -3 -20 -5 -19
-12 9 -8 37 -25 35 -25 -3 0 -17 -6 -24 -19 -24 -15 0 -20 -7 -20 -27 0 -16
-2 -37 -5 -48 -2 -11 -5 -23 -5 -27 -1 -5 -5 -8 -11 -8 -11 0 -29 61 -22 74 9
17 10 66 1 60 -6 -3 -7 8 -4 26 4 23 2 31 -7 28 -7 -3 -16 -27 -21 -54 -12
-75 -16 -82 -30 -54 -9 17 -20 24 -35 22 -23 -3 -30 20 -13 47 5 7 6 22 3 33
-4 16 -7 13 -18 -17 -7 -21 -11 -45 -9 -55 2 -12 -3 -17 -19 -17 -13 0 -23 5
-24 11 -2 30 -13 60 -27 76 -9 10 -17 28 -18 40 -1 18 -3 19 -13 6 -6 -9 -19
-16 -29 -16 -12 0 -16 -6 -12 -20 7 -27 -9 -35 -22 -11 -11 20 -42 22 -49 3
-5 -16 -19 -15 -25 1 -2 6 -2 0 0 -15 7 -42 -13 -33 -37 16 -17 37 -19 49 -10
67 8 13 8 25 2 31 -5 5 -8 32 -6 61 l3 52 -11 -55 c-9 -46 -12 -51 -19 -33 -4
12 -9 39 -11 60 -2 21 -7 41 -13 45 -6 4 -9 50 -9 107 2 79 -1 101 -13 105 -8
3 -12 10 -8 15 3 5 1 12 -5 16 -5 3 -10 26 -10 50 0 25 -6 50 -15 58 -8 9 -12
26 -9 41 2 15 0 35 -5 44 -6 10 -11 12 -11 5 0 -7 -7 -13 -16 -13 -8 0 -12 5
-9 10 3 6 2 10 -2 10 -5 0 -17 19 -27 43 -9 23 -22 50 -27 60 -6 10 -7 27 -4
38 4 13 2 19 -9 19 -10 0 -16 9 -17 25 -1 14 -3 30 -4 35 -1 6 -4 29 -5 53 -2
32 -4 35 -7 15 -4 -28 -23 -40 -23 -15 0 6 -5 29 -10 49 -8 26 -15 35 -25 31
-19 -7 -54 34 -55 63 0 12 -7 27 -15 34 -8 7 -15 19 -15 26 0 8 -4 14 -8 14
-4 0 -18 36 -31 80 -13 44 -28 80 -32 80 -5 0 -6 7 -3 15 4 8 2 15 -4 15 -12
0 -23 -26 -14 -35 9 -8 10 -55 2 -55 -4 0 -24 48 -44 108 -39 112 -62 168 -50
125 4 -18 1 -23 -13 -23 -10 0 -14 -4 -8 -8 6 -4 11 -14 13 -23 3 -21 -29 -21
-46 0 -10 12 -12 13 -6 1 7 -13 6 -13 -10 -1 -21 18 -46 75 -46 107 0 13 -4
24 -8 24 -5 0 -9 6 -10 13 -1 24 -33 141 -39 147 -3 3 -3 -7 1 -22 5 -21 3
-28 -8 -28 -9 0 -13 6 -10 14 3 7 -6 26 -20 41 -14 15 -23 31 -20 36 3 5 0 9
-5 9 -6 0 -10 3 -9 8 4 11 -31 57 -37 50 -4 -3 1 -23 9 -43 19 -44 20 -55 6
-55 -5 0 -10 7 -10 15 0 7 -6 18 -13 22 -8 4 -19 17 -25 28 -6 11 -12 15 -12
9 0 -6 -7 -11 -15 -11 -8 0 -12 4 -9 9 10 16 -60 105 -78 100 -5 -1 -7 2 -3 8
3 5 -1 13 -9 16 -9 3 -13 11 -9 17 3 5 1 7 -4 4 -13 -8 -46 27 -36 37 4 4 0 4
-8 1 -11 -4 -18 1 -22 15 -3 12 -10 19 -16 15 -6 -3 -12 -1 -12 4 -3 20 -5 26
-17 47 -6 12 -8 24 -4 28 3 4 -1 4 -10 1 -11 -5 -22 2 -33 22 l-16 28 6 -28
c4 -22 3 -27 -7 -21 -7 5 -3 -4 9 -20 23 -29 48 -94 40 -102 -6 -6 -57 47 -57
59 0 5 -9 6 -19 2 -15 -4 -28 5 -53 38 -33 44 -82 79 -71 51 3 -8 0 -14 -6
-14 -7 0 -14 7 -17 15 -4 8 -10 13 -14 10 -5 -3 -11 -1 -15 5 -4 6 -12 7 -18
4 -7 -4 -9 -4 -5 1 5 5 -1 14 -12 22 -11 8 -20 21 -20 29 0 8 -8 14 -19 14
-10 0 -24 7 -31 15 -7 9 -19 14 -26 11 -7 -3 -16 0 -20 6 -5 7 -2 8 7 3 11 -6
11 -5 3 4 -18 19 -49 9 -52 -17 -2 -14 -8 -20 -15 -15 -9 5 -9 3 -1 -8 17 -22
26 -51 13 -43 -6 3 3 -13 20 -36 17 -24 29 -45 27 -47 -5 -6 -138 134 -159
168 -11 16 -23 29 -29 29 -5 0 -6 5 -2 12 4 6 3 8 -4 4 -5 -3 -35 21 -65 54
-29 33 -57 60 -62 60 -4 0 -1 -7 6 -16 15 -19 20 -76 5 -67 -5 4 3 -10 19 -31
23 -31 26 -39 14 -46 -9 -6 -20 -2 -34 13 -11 13 -18 18 -15 12 3 -6 -2 -4
-10 5 -9 9 -20 15 -26 13 -5 -2 -38 26 -72 62 -55 58 -92 81 -92 56 0 -10 -26
-22 -58 -26 -12 -2 -20 1 -16 6 3 5 -2 9 -11 9 -18 0 -23 4 -83 77 -27 33 -48
50 -57 46 -8 -3 -12 -9 -9 -14 3 -5 -2 -9 -10 -9 -8 0 -18 5 -21 10 -3 6 -16
10 -28 10 -18 0 -19 -2 -7 -10 8 -5 11 -10 6 -10 -6 0 3 -13 19 -30 15 -16 32
-27 37 -24 4 3 8 -1 8 -9 0 -13 -13 -15 -53 -8 -5 0 -5 6 -2 11 6 9 -8 14 -28
11 -5 -1 -6 3 -2 9 3 5 1 10 -5 10 -6 0 -26 16 -45 35 -28 30 -115 74 -115 59z
m281 -61 c13 -16 12 -17 -3 -4 -10 7 -18 15 -18 17 0 8 8 3 21 -13z"/>
<path d="M5337 8917 c-3 -8 1 -14 8 -14 7 0 11 6 8 14 -3 7 -6 13 -8 13 -2 0
-5 -6 -8 -13z"/>
<path d="M4566 8866 c3 -8 17 -17 31 -21 18 -4 23 -10 18 -23 -5 -14 -4 -15 7
-4 11 11 9 16 -7 27 -11 8 -25 19 -32 25 -17 14 -23 13 -17 -4z"/>
<path d="M3212 8826 c7 -8 15 -12 17 -11 5 6 -10 25 -20 25 -5 0 -4 -6 3 -14z"/>
<path d="M4662 8803 c2 -9 9 -18 16 -21 18 -6 15 25 -4 32 -11 4 -14 1 -12
-11z"/>
<path d="M3007 8789 c7 -7 15 -10 18 -7 3 3 -2 9 -12 12 -14 6 -15 5 -6 -5z"/>
<path d="M2908 8733 c6 -2 18 -2 25 0 6 3 1 5 -13 5 -14 0 -19 -2 -12 -5z"/>
<path d="M6125 8646 c10 -14 19 -26 22 -26 7 0 -17 39 -28 46 -6 3 -3 -5 6
-20z"/>
<path d="M2570 8656 c0 -2 7 -6 15 -10 8 -3 15 -1 15 4 0 6 -7 10 -15 10 -8 0
-15 -2 -15 -4z"/>
<path d="M6336 8507 c3 -10 9 -15 12 -12 3 3 0 11 -7 18 -10 9 -11 8 -5 -6z"/>
<path d="M6911 8104 c0 -11 3 -14 6 -6 3 7 2 16 -1 19 -3 4 -6 -2 -5 -13z"/>
<path d="M1633 8073 c9 -2 23 -2 30 0 6 3 -1 5 -18 5 -16 0 -22 -2 -12 -5z"/>
<path d="M1398 7828 c9 -9 15 -9 24 0 9 9 7 12 -12 12 -19 0 -21 -3 -12 -12z"/>
<path d="M1185 7700 c-3 -6 1 -7 9 -4 18 7 21 14 7 14 -6 0 -13 -4 -16 -10z"/>
<path d="M1076 7681 c-4 -5 3 -7 14 -4 23 6 26 13 6 13 -8 0 -17 -4 -20 -9z"/>
<path d="M696 6964 c-11 -7 -18 -16 -15 -18 2 -2 13 2 23 10 11 7 18 16 15 18
-2 2 -13 -2 -23 -10z"/>
<path d="M8112 6430 c0 -14 2 -19 5 -12 2 6 2 18 0 25 -3 6 -5 1 -5 -13z"/>
<path d="M556 6427 c3 -10 9 -15 12 -12 3 3 0 11 -7 18 -10 9 -11 8 -5 -6z"/>
<path d="M7841 6414 c0 -11 3 -14 6 -6 3 7 2 16 -1 19 -3 4 -6 -2 -5 -13z"/>
<path d="M7971 6415 c1 -19 18 -51 18 -35 0 8 -4 22 -9 30 -5 8 -9 11 -9 5z"/>
<path d="M7943 6338 c-2 -16 1 -18 10 -9 7 7 8 14 1 21 -6 6 -10 2 -11 -12z"/>
<path d="M8435 6289 c-4 -6 -5 -12 -2 -15 2 -3 7 2 10 11 7 17 1 20 -8 4z"/>
<path d="M8497 6293 c-4 -3 -7 -11 -7 -17 0 -6 5 -5 12 2 6 6 9 14 7 17 -3 3
-9 2 -12 -2z"/>
<path d="M8291 6244 c0 -11 3 -14 6 -6 3 7 2 16 -1 19 -3 4 -6 -2 -5 -13z"/>
<path d="M450 6235 c-14 -8 -20 -14 -15 -14 6 0 21 6 35 14 14 8 21 14 15 14
-5 0 -21 -6 -35 -14z"/>
<path d="M9174 5618 l-19 -21 28 18 c28 18 33 25 19 25 -5 0 -17 -10 -28 -22z"/>
<path d="M710 5080 c-9 -6 -10 -10 -3 -10 6 0 15 5 18 10 8 12 4 12 -15 0z"/>
<path d="M1220 4609 c0 -5 5 -7 10 -4 6 3 10 8 10 11 0 2 -4 4 -10 4 -5 0 -10
-5 -10 -11z"/>
<path d="M1133 4585 c-3 -9 -3 -18 -1 -21 3 -3 8 4 11 16 6 23 -1 27 -10 5z"/>
<path d="M9469 4433 c-13 -16 -12 -17 4 -4 16 13 21 21 13 21 -2 0 -10 -8 -17
-17z"/>
<path d="M9726 4173 c-6 -14 -5 -15 5 -6 7 7 10 15 7 18 -3 3 -9 -2 -12 -12z"/>
<path d="M1215 4159 c-4 -6 -5 -12 -2 -15 2 -3 7 2 10 11 7 17 1 20 -8 4z"/>
<path d="M9473 4055 c-3 -9 -3 -19 1 -22 3 -4 6 2 6 12 0 15 2 16 18 4 15 -13
16 -12 3 4 -17 21 -20 21 -28 2z"/>
<path d="M9520 3980 c-8 -5 -10 -10 -5 -10 6 0 17 5 25 10 8 5 11 10 5 10 -5
0 -17 -5 -25 -10z"/>
<path d="M9420 3950 c-18 -12 -2 -12 25 0 13 6 15 9 5 9 -8 0 -22 -4 -30 -9z"/>
<path d="M9440 3766 c0 -9 40 -13 46 -5 3 5 -6 9 -20 9 -14 0 -26 -2 -26 -4z"/>
<path d="M9500 3758 c0 -4 9 -8 20 -8 11 0 20 4 20 8 0 4 -9 8 -20 8 -11 0
-20 -4 -20 -8z"/>
<path d="M9568 3763 c12 -2 30 -2 40 0 9 3 -1 5 -23 4 -22 0 -30 -2 -17 -4z"/>
<path d="M9418 3733 c23 -2 59 -2 80 0 20 2 1 4 -43 4 -44 0 -61 -2 -37 -4z"/>
<path d="M9551 3736 c3 -3 32 -9 65 -12 32 -4 57 -4 54 -1 -3 2 -32 8 -65 12
-33 3 -57 4 -54 1z"/>
<path d="M9693 3723 c9 -2 23 -2 30 0 6 3 -1 5 -18 5 -16 0 -22 -2 -12 -5z"/>
<path d="M9543 3663 c9 -2 25 -2 35 0 9 3 1 5 -18 5 -19 0 -27 -2 -17 -5z"/>
<path d="M9274 3621 c7 -11 46 -35 46 -28 0 3 -12 12 -26 22 -15 9 -23 12 -20
6z"/>
<path d="M7869 3593 c-13 -16 -12 -17 4 -4 9 7 17 15 17 17 0 8 -8 3 -21 -13z"/>
<path d="M4712 3580 c0 -14 2 -19 5 -12 2 6 2 18 0 25 -3 6 -5 1 -5 -13z"/>
<path d="M4751 3564 c0 -11 3 -14 6 -6 3 7 2 16 -1 19 -3 4 -6 -2 -5 -13z"/>
<path d="M9180 3576 c0 -3 9 -10 20 -16 11 -6 20 -8 20 -6 0 3 -9 10 -20 16
-11 6 -20 8 -20 6z"/>
<path d="M9230 3576 c0 -2 9 -6 20 -9 11 -3 18 -1 14 4 -5 9 -34 13 -34 5z"/>
<path d="M8256 3553 c-6 -14 -5 -15 5 -6 7 7 10 15 7 18 -3 3 -9 -2 -12 -12z"/>
<path d="M7585 3531 c3 -6 10 -9 15 -6 4 3 11 0 13 -5 3 -6 4 -5 3 2 -1 7 -11
15 -21 16 -11 3 -15 0 -10 -7z"/>
<path d="M9350 3536 c0 -2 8 -10 18 -17 15 -13 16 -12 3 4 -13 16 -21 21 -21
13z"/>
<path d="M9260 3516 c0 -2 7 -7 16 -10 8 -3 12 -2 9 4 -6 10 -25 14 -25 6z"/>
<path d="M9300 3496 c0 -2 8 -10 18 -17 15 -13 16 -12 3 4 -13 16 -21 21 -21
13z"/>
<path d="M8332 3465 c-12 -14 -18 -25 -13 -25 11 0 45 39 39 45 -2 3 -14 -6
-26 -20z"/>
<path d="M9340 3467 c0 -2 19 -19 43 -37 23 -19 36 -26 28 -17 -15 19 -71 61
-71 54z"/>
<path d="M5170 3450 c0 -5 5 -10 10 -10 6 0 10 5 10 10 0 6 -4 10 -10 10 -5 0
-10 -4 -10 -10z"/>
<path d="M7442 3446 c7 -8 15 -12 17 -11 5 6 -10 25 -20 25 -5 0 -4 -6 3 -14z"/>
<path d="M9190 3444 c0 -4 11 -17 24 -29 20 -19 83 -100 159 -205 11 -16 14
-18 8 -5 -11 24 -115 170 -153 214 -26 30 -38 38 -38 25z"/>
<path d="M9445 3380 c10 -11 20 -20 23 -20 3 0 -3 9 -13 20 -10 11 -20 20 -23
20 -3 0 3 -9 13 -20z"/>
<path d="M8166 3353 c-6 -14 -5 -15 5 -6 7 7 10 15 7 18 -3 3 -9 -2 -12 -12z"/>
<path d="M9480 3356 c0 -2 8 -10 18 -17 15 -13 16 -12 3 4 -13 16 -21 21 -21
13z"/>
<path d="M4006 3317 c3 -10 9 -15 12 -12 3 3 0 11 -7 18 -10 9 -11 8 -5 -6z"/>
<path d="M9145 3293 c15 -24 30 -43 32 -43 7 0 -31 61 -46 73 -8 7 -2 -7 14
-30z"/>
<path d="M2750 3289 c0 -5 5 -7 10 -4 6 3 10 8 10 11 0 2 -4 4 -10 4 -5 0 -10
-5 -10 -11z"/>
<path d="M9565 3280 c10 -11 20 -20 23 -20 3 0 -3 9 -13 20 -10 11 -20 20 -23
20 -3 0 3 -9 13 -20z"/>
<path d="M5710 3260 c0 -5 5 -10 11 -10 5 0 7 5 4 10 -3 6 -8 10 -11 10 -2 0
-4 -4 -4 -10z"/>
<path d="M9630 3225 c13 -14 26 -25 28 -25 3 0 -5 11 -18 25 -13 14 -26 25
-28 25 -3 0 5 -11 18 -25z"/>
<path d="M5870 3224 c0 -8 5 -12 10 -9 6 3 10 10 10 16 0 5 -4 9 -10 9 -5 0
-10 -7 -10 -16z"/>
<path d="M9151 3174 c0 -11 3 -14 6 -6 3 7 2 16 -1 19 -3 4 -6 -2 -5 -13z"/>
</g>
</svg>
